<svg xmlns="http://www.w3.org/2000/svg" width="27" height="20" viewBox="0 0 27 20"><g id="关注公众号" transform="translate(145 44)"><path id="路径_48" data-name="路径 48" d="M-127.481-38.564A8.973,8.973,0,0,0-136-44c-4.971,0-9,3.582-9,8a7.464,7.464,0,0,0,2.134,5.166L-144-28l4.066-.813A9.871,9.871,0,0,0-136-28a10.048,10.048,0,0,0,2.544-.329A6.954,6.954,0,0,1-134-31C-134-34.589-131.239-37.618-127.481-38.564ZM-139-37a1,1,0,0,1-1-1,1,1,0,0,1,1-1,1,1,0,0,1,1,1A1,1,0,0,1-139-37Zm4-1a1,1,0,0,1,1-1,1,1,0,0,1,1,1,1,1,0,0,1-1,1A1,1,0,0,1-135-38Z" fill="#3cb034"/><path id="路径_49" data-name="路径 49" d="M-118-31c0-3.314-3.134-6-7-6s-7,2.686-7,6,3.134,6,7,6a8.122,8.122,0,0,0,1.917-.233L-120-24l-.747-2.242A5.742,5.742,0,0,0-118-31Zm-10-1a1,1,0,0,1-1-1,1,1,0,0,1,1-1,1,1,0,0,1,1,1A1,1,0,0,1-128-32Zm5-2a1,1,0,0,1,1,1,1,1,0,0,1-1,1,1,1,0,0,1-1-1A1,1,0,0,1-123-34Z" fill="#3cb034"/></g></svg>